PathFileType	4	(X/Y/Z)	markers
DataRate	CameraRate	NumFrames	NumMarkers	Units	OrigDataRate	OrigDataStartFrame	OrigNumFrames
200	200	4	49	mm	200	192	219
Frame#	Time	RASI			LASI			RPSI			LPSI			RTH1			RTH2			RTH3			RTH4			RLFC			RMFC			RTB1			RTB2			RTB3			RTB4			RLMAL			RMMAL			RCAL			RTOE			RMT5			LTH1			LTH2			LTH3			LTH4			LLFC			LMFC			LTB1			LTB2			LTB3			LTB4			LLMAL			LMMAL			LCAL			LTOE			LMT5			C7			T10			CLAV			RACR			LACR			RLEL			RFAradius			LLEL			LFAradius			RHJC			LHJC			RKJC			LKJC			RAJC			LAJC		
		X1	Y1	Z1	X2	Y2	Z2	X3	Y3	Z3	X4	Y4	Z4	X5	Y5	Z5	X6	Y6	Z6	X7	Y7	Z7	X8	Y8	Z8	X9	Y9	Z9	X10	Y10	Z10	X11	Y11	Z11	X12	Y12	Z12	X13	Y13	Z13	X14	Y14	Z14	X15	Y15	Z15	X16	Y16	Z16	X17	Y17	Z17	X18	Y18	Z18	X19	Y19	Z19	X20	Y20	Z20	X21	Y21	Z21	X22	Y22	Z22	X23	Y23	Z23	X24	Y24	Z24	X25	Y25	Z25	X26	Y26	Z26	X27	Y27	Z27	X28	Y28	Z28	X29	Y29	Z29	X30	Y30	Z30	X31	Y31	Z31	X32	Y32	Z32	X33	Y33	Z33	X34	Y34	Z34	X35	Y35	Z35	X36	Y36	Z36	X37	Y37	Z37	X38	Y38	Z38	X39	Y39	Z39	X40	Y40	Z40	X41	Y41	Z41	X42	Y42	Z42	X43	Y43	Z43	X44	Y44	Z44	X45	Y45	Z45	X46	Y46	Z46	X47	Y47	Z47	X48	Y48	Z48	X49	Y49	Z49
192	0.955000	698.363834	1021.695621	-1485.289347	702.647464	1025.231415	-1723.519699	536.240058	1060.526652	-1559.170927	535.067802	1060.186727	-1649.474635	638.377126	772.586994	-1416.837579	694.221214	758.577540	-1447.923144	673.241147	659.331322	-1446.278031	630.027341	665.600170	-1421.056015	594.459959	548.832482	-1424.889461	589.910795	512.124536	-1539.977649	556.038503	429.928799	-1388.493570	600.207159	425.050244	-1410.623644	596.186768	317.983657	-1415.001303	538.934923	328.036923	-1385.257529	525.594461	128.929227	-1396.739836	548.546516	130.717641	-1495.882673	459.373365	90.278205	-1449.800955	678.445962	65.756809	-1467.748074	645.321310	58.396242	-1374.218008	669.312618	771.261239	-1792.564582	702.243604	769.924530	-1755.356254	692.894502	668.136871	-1743.580896	649.841999	665.936412	-1791.995718	597.818103	531.907186	-1801.052298	567.557049	517.230684	-1678.550127	581.478590	441.884719	-1831.685405	619.416160	434.842000	-1802.369601	605.411890	333.830256	-1795.377285	554.550086	337.133849	-1835.836287	539.915864	124.522417	-1807.631436	533.191154	127.502252	-1709.937318	452.936937	87.182686	-1766.524603	670.419230	69.627073	-1723.253981	644.028312	57.964959	-1819.519408	534.812890	1559.454443	-1613.897122	492.776595	1347.662715	-1609.535316	648.995383	1501.783847	-1586.995672	546.092761	1564.768009	-1482.475407	539.483334	1561.074751	-1738.023090	551.848565	1501.013781	-1168.488352	614.132309	1556.943075	-915.227476	582.160266	1482.120951	-2053.621839	677.233158	1541.147659	-2295.019891	631.752606	952.831175	-1520.728358	634.842254	955.381432	-1692.556423	592.185377	530.478509	-1482.433555	582.687576	524.568935	-1739.801212	537.070488	129.823434	-1446.311255	536.553509	126.012335	-1758.784377
193	0.960000	698.372133	1021.765512	-1485.323821	702.758617	1025.231145	-1723.493267	536.328796	1060.561298	-1559.167604	535.140462	1060.133440	-1649.469340	638.358991	772.558836	-1416.834580	694.213067	758.560397	-1447.949211	673.286976	659.355973	-1446.294871	630.027338	665.600174	-1421.056015	594.454684	548.825437	-1424.927154	589.961377	512.169930	-1540.013820	556.078347	429.944667	-1388.506415	600.207596	425.066082	-1410.572380	596.131891	317.935849	-1415.049319	539.029963	328.072603	-1385.264533	525.657074	128.962945	-1396.746177	548.548082	130.720621	-1495.898514	459.363762	90.270209	-1449.800570	678.489698	65.796230	-1467.741179	645.332018	58.446303	-1374.234592	669.379748	771.278836	-1792.636492	702.245796	769.915047	-1755.427217	692.882016	668.087066	-1743.626560	649.828981	665.915415	-1791.976479	597.892327	531.883594	-1801.099953	567.591101	517.193855	-1678.584925	581.556882	441.896598	-1831.684355	619.403983	434.862043	-1802.370224	605.409592	333.866345	-1795.390448	554.622534	337.199155	-1835.874804	539.956680	124.515940	-1807.609126	533.242829	127.497163	-1709.907285	452.915425	87.195413	-1766.570253	670.412670	69.600809	-1723.210803	644.001119	57.922796	-1819.472370	534.880896	1559.553423	-1613.925712	492.798218	1347.660106	-1609.512015	648.915332	1501.780922	-1586.932684	546.105302	1564.690072	-1482.513287	539.481122	1561.061497	-1737.998585	551.860265	1501.032586	-1168.497117	614.137604	1556.936294	-915.229817	582.208488	1482.137123	-2053.606962	677.206250	1541.133163	-2295.016919	631.802292	952.891950	-1520.761160	634.966193	955.391656	-1692.548975	592.208031	530.497683	-1482.470487	582.741714	524.538725	-1739.842439	537.102578	129.841783	-1446.322346	536.599755	126.006552	-1758.758206
194	0.965000	698.352839	1021.742351	-1485.321527	702.798660	1025.244521	-1723.513801	536.251712	1060.578393	-1559.293557	535.119589	1060.149887	-1649.514029	638.504364	772.662547	-1416.818449	694.292864	758.585808	-1447.959077	673.286966	659.355975	-1446.294892	630.040024	665.623633	-1421.095961	594.453777	548.814378	-1424.911070	589.990675	512.172395	-1540.046106	556.003922	429.883936	-1388.539012	600.198384	425.030751	-1410.593647	596.215422	317.968898	-1415.019890	538.970955	328.088227	-1385.274459	525.614757	128.957579	-1396.724284	548.491944	130.673646	-1495.869791	459.366713	90.306707	-1449.799470	678.464350	65.783850	-1467.716627	645.342308	58.443391	-1374.190821	669.316006	771.252297	-1792.636143	702.319490	769.921922	-1755.427663	692.936466	668.130753	-1743.587903	649.834047	665.955197	-1792.013868	597.913083	531.891204	-1801.074840	567.576826	517.201569	-1678.575448	581.490677	441.864437	-1831.684758	619.438658	434.910953	-1802.408829	605.407859	333.895378	-1795.379968	554.537476	337.154265	-1835.836961	539.914324	124.486426	-1807.657141	533.215640	127.519255	-1709.910180	452.909085	87.193561	-1766.580680	670.435789	69.643798	-1723.265515	644.057828	57.991543	-1819.541906	534.897155	1559.519201	-1613.832481	492.829686	1347.659162	-1609.565588	648.957942	1501.728151	-1586.984536	546.062772	1564.727217	-1482.524270	539.547920	1561.085269	-1738.011622	551.878200	1501.029818	-1168.501264	613.949543	1557.137024	-915.239282	582.224862	1482.140618	-2053.622803	677.185815	1541.162389	-2295.014036	631.772515	952.873323	-1520.790314	634.979187	955.399361	-1692.593096	592.222226	530.493387	-1482.478588	582.744954	524.546387	-1739.825144	537.053350	129.815613	-1446.297037	536.564982	126.002841	-1758.783661
195	0.970000	698.456786	1021.672068	-1485.328750	702.813970	1025.276604	-1723.514546	536.368081	1060.691969	-1559.257381	535.233166	1060.179462	-1649.550890	638.414062	772.570932	-1416.875645	694.316890	758.610764	-1447.994572	673.344429	659.373829	-1446.299257	630.064477	665.584187	-1421.094573	594.342226	548.947811	-1424.887380	590.027346	512.171555	-1540.018956	556.003219	429.931517	-1388.512626	600.253008	425.065955	-1410.585916	596.199670	317.976636	-1415.055523	539.019945	328.077516	-1385.235686	525.631296	128.961741	-1396.718520	548.542842	130.688831	-1495.878887	459.375788	90.250130	-1449.757093	678.422251	65.752559	-1467.714209	645.324700	58.406653	-1374.174565	669.433360	771.257247	-1792.635850	702.382862	769.972812	-1755.464720	692.862281	668.137138	-1743.598953	649.885079	665.953373	-1792.070526	597.928713	531.844325	-1801.125053	567.589705	517.207796	-1678.550377	581.538432	441.893420	-1831.722620	619.522052	434.879669	-1802.444939	605.444783	333.892828	-1795.340914	554.544535	337.110513	-1835.874607	539.934199	124.506662	-1807.624005	533.168859	127.534539	-1709.937159	452.877671	87.186910	-1766.603743	670.359611	69.607766	-1723.259958	644.036527	57.941666	-1819.502780	534.855207	1559.452657	-1613.858459	492.864514	1347.601155	-1609.578089	648.941923	1501.739491	-1586.972227	546.130269	1564.747248	-1482.506804	539.602108	1561.068377	-1738.013040	551.914455	1501.044506	-1168.452698	613.943011	1557.125990	-915.256089	582.244204	1482.173344	-2053.594769	677.178477	1541.146330	-2295.045918	631.830974	952.857901	-1520.801287	634.973721	955.457778	-1692.599800	592.184786	530.559683	-1482.453168	582.759209	524.526060	-1739.837715	537.087069	129.825286	-1446.298703	536.551529	126.020601	-1758.780582
